<svg width="39" height="39" viewBox="0 0 39 39" fill="none" xmlns="http://www.w3.org/2000/svg">
<g filter="url(#filter0_d_2269_736)">
<circle cx="19.5" cy="19.5" r="17.5" fill="white"/>
<path d="M26.5333 10H12.0667C10.93 10 10 10.93 10 12.0667V26.5333C10 27.671 10.93 28.6 12.0667 28.6H26.5333C27.67 28.6 28.6 27.671 28.6 26.5333V12.0667C28.6 10.93 27.67 10 26.5333 10ZM19.2835 25.0071C20.8013 25.0068 22.2569 24.4037 23.33 23.3303C24.4032 22.257 25.0061 20.8013 25.0061 19.2835C25.0061 18.9342 24.9616 18.5973 24.8996 18.2667H26.5333V25.7232C26.5333 25.8171 26.5148 25.9101 26.4788 25.9968C26.4427 26.0835 26.3899 26.1622 26.3234 26.2285C26.2569 26.2947 26.1779 26.3472 26.091 26.3828C26.0042 26.4185 25.9111 26.4366 25.8172 26.4362H12.7828C12.6889 26.4366 12.5958 26.4185 12.509 26.3828C12.4221 26.3472 12.3431 26.2947 12.2766 26.2285C12.2101 26.1622 12.1573 26.0835 12.1212 25.9968C12.0852 25.9101 12.0667 25.8171 12.0667 25.7232V18.2667H13.6673C13.6043 18.5973 13.5598 18.9342 13.5598 19.2835C13.5601 20.8014 14.1632 22.2571 15.2365 23.3304C16.3099 24.4037 17.7655 25.0068 19.2835 25.0071ZM15.7071 19.2835C15.7071 18.8138 15.7996 18.3488 15.9793 17.9149C16.1591 17.4809 16.4225 17.0867 16.7546 16.7546C17.0867 16.4225 17.4809 16.1591 17.9149 15.9793C18.3488 15.7996 18.8138 15.7071 19.2835 15.7071C19.7531 15.7071 20.2182 15.7996 20.6521 15.9793C21.086 16.1591 21.4802 16.4225 21.8123 16.7546C22.1444 17.0867 22.4079 17.4809 22.5876 17.9149C22.7673 18.3488 22.8598 18.8138 22.8598 19.2835C22.8598 20.232 22.483 21.1416 21.8123 21.8123C21.1416 22.483 20.232 22.8598 19.2835 22.8598C18.335 22.8598 17.4253 22.483 16.7546 21.8123C16.0839 21.1416 15.7071 20.232 15.7071 19.2835ZM25.8172 15.1667H24.1484C23.9589 15.1661 23.7774 15.0906 23.6434 14.9566C23.5094 14.8226 23.4339 14.6411 23.4333 14.4516V12.7807C23.4333 12.386 23.7537 12.0667 24.1474 12.0667H25.8162C26.213 12.0667 26.5333 12.386 26.5333 12.7807V14.4506C26.5333 14.8443 26.213 15.1667 25.8172 15.1667Z" fill="#F53838"/>
</g>
<defs>
<filter id="filter0_d_2269_736" x="0" y="0" width="39" height="39" filterUnits="userSpaceOnUse" color-interpolation-filters="sRGB">
<feFlood flood-opacity="0" result="BackgroundImageFix"/>
<feColorMatrix in="SourceAlpha" type="matrix" values="0 0 0 0 0 0 0 0 0 0 0 0 0 0 0 0 0 0 127 0" result="hardAlpha"/>
<feOffset/>
<feGaussianBlur stdDeviation="1"/>
<feComposite in2="hardAlpha" operator="out"/>
<feColorMatrix type="matrix" values="0 0 0 0 0 0 0 0 0 0 0 0 0 0 0 0 0 0 0.13 0"/>
<feBlend mode="normal" in2="BackgroundImageFix" result="effect1_dropShadow_2269_736"/>
<feBlend mode="normal" in="SourceGraphic" in2="effect1_dropShadow_2269_736" result="shape"/>
</filter>
</defs>
</svg>
